<svg height="32" viewBox="0 0 1024 1024" width="32" xmlns="http://www.w3.org/2000/svg"><path d="m511.913993 928.016126c-8.256677 0-16.341341-3.096254-22.705863-9.460776l-95.983874-95.983874c-12.55703-12.55703-12.55703-32.682681 0-45.239711s32.682681-12.55703 45.239711 0l73.450025 73.450025 73.450025-73.450025c6.020494-6.020494 14.105157-9.460776 22.705863-9.460776h223.962372c17.717453 0 31.994625-14.277171 31.994625-31.994625v-511.913992c0-17.545439-14.277171-31.994625-31.994625-31.994625h-639.892491c-17.545439 0-31.994625 14.449185-31.994625 31.994625v511.913993c0 17.717453 14.449185 31.994625 31.994625 31.994625h95.983874c17.717453 0 31.994625 14.277171 31.994625 31.994625s-14.277171 31.994625-31.994625 31.994625h-95.983874c-52.980346 0-95.983874-43.003528-95.983874-95.983874l.000001-511.913994c0-52.980346 43.003528-95.983874 95.983874-95.983874h639.892491c52.980346 0 95.983874 43.003528 95.983874 95.983874v511.913993c0 52.980346-43.003528 95.983874-95.983874 95.983874h-210.8893l-86.523097 86.695111c-6.192508 6.192508-14.449186 9.460776-22.705863 9.460776z"/><path d="m335.943558 511.913993c-26.490173 0-47.991937-21.501764-47.991937-47.991937s21.501764-47.991937 47.991937-47.991937 47.991937 21.501764 47.991937 47.991937-21.501764 47.991937-47.991937 47.991937z"/><path d="m527.911305 511.913993c-26.490173 0-47.991937-21.501764-47.991937-47.991937s21.501764-47.991937 47.991937-47.991937 47.991937 21.501764 47.991937 47.991937-21.501764 47.991937-47.991937 47.991937z"/><path d="m720.051067 511.913993c-26.490173 0-47.991937-21.501764-47.991937-47.991937s21.501764-47.991937 47.991937-47.991937 47.991937 21.501764 47.991937 47.991937-21.673778 47.991937-47.991937 47.991937z"/></svg>